<mxfile host="app.diagrams.net" agent="Mozilla/5.0 (Windows NT 10.0; Win64; x64) AppleWebKit/537.36 (KHTML, like Gecko) Chrome/141.0.0.0 Safari/537.36" version="28.2.5">
  <diagram name="Página-1" id="g3L8_VCffunA7m2RyKbb">
    <mxGraphModel dx="1111" dy="517" grid="1" gridSize="10" guides="1" tooltips="1" connect="1" arrows="1" fold="1" page="1" pageScale="1" pageWidth="827" pageHeight="1169" math="0" shadow="0">
      <root>
        <mxCell id="0" />
        <mxCell id="1" parent="0" />
        <mxCell id="9RJ5_KFD5nvwRMHBTUOD-1" value="" style="whiteSpace=wrap;html=1;aspect=fixed;" vertex="1" parent="1">
          <mxGeometry x="204" y="90" width="420" height="420" as="geometry" />
        </mxCell>
        <mxCell id="9RJ5_KFD5nvwRMHBTUOD-2" value="Cliente" style="shape=umlActor;verticalLabelPosition=bottom;verticalAlign=top;html=1;outlineConnect=0;" vertex="1" parent="1">
          <mxGeometry x="140" y="130" width="30" height="60" as="geometry" />
        </mxCell>
        <mxCell id="9RJ5_KFD5nvwRMHBTUOD-3" value="Atendente" style="shape=umlActor;verticalLabelPosition=bottom;verticalAlign=top;html=1;outlineConnect=0;" vertex="1" parent="1">
          <mxGeometry x="670" y="130" width="30" height="60" as="geometry" />
        </mxCell>
        <mxCell id="9RJ5_KFD5nvwRMHBTUOD-4" value="Pizzaiolo" style="shape=umlActor;verticalLabelPosition=bottom;verticalAlign=top;html=1;outlineConnect=0;" vertex="1" parent="1">
          <mxGeometry x="670" y="310" width="30" height="60" as="geometry" />
        </mxCell>
        <mxCell id="9RJ5_KFD5nvwRMHBTUOD-5" value="liga e faz pedido" style="ellipse;whiteSpace=wrap;html=1;" vertex="1" parent="1">
          <mxGeometry x="255" y="120" width="110" height="80" as="geometry" />
        </mxCell>
        <mxCell id="9RJ5_KFD5nvwRMHBTUOD-7" value="Coleta os dados e anota pedido" style="ellipse;whiteSpace=wrap;html=1;" vertex="1" parent="1">
          <mxGeometry x="400" y="120" width="110" height="80" as="geometry" />
        </mxCell>
        <mxCell id="9RJ5_KFD5nvwRMHBTUOD-10" value="" style="endArrow=none;html=1;rounded=0;fontSize=12;startSize=8;endSize=8;curved=1;entryX=0;entryY=0.5;entryDx=0;entryDy=0;" edge="1" parent="1" source="9RJ5_KFD5nvwRMHBTUOD-2" target="9RJ5_KFD5nvwRMHBTUOD-5">
          <mxGeometry width="50" height="50" relative="1" as="geometry">
            <mxPoint x="540" y="300" as="sourcePoint" />
            <mxPoint x="590" y="250" as="targetPoint" />
          </mxGeometry>
        </mxCell>
        <mxCell id="9RJ5_KFD5nvwRMHBTUOD-11" value="comunica o pizzaiolo" style="ellipse;whiteSpace=wrap;html=1;" vertex="1" parent="1">
          <mxGeometry x="414" y="200" width="120" height="80" as="geometry" />
        </mxCell>
        <mxCell id="9RJ5_KFD5nvwRMHBTUOD-12" value="" style="endArrow=none;html=1;rounded=0;fontSize=12;startSize=8;endSize=8;curved=1;exitX=1;exitY=0.5;exitDx=0;exitDy=0;entryX=0;entryY=0.5;entryDx=0;entryDy=0;" edge="1" parent="1" source="9RJ5_KFD5nvwRMHBTUOD-5" target="9RJ5_KFD5nvwRMHBTUOD-7">
          <mxGeometry width="50" height="50" relative="1" as="geometry">
            <mxPoint x="540" y="300" as="sourcePoint" />
            <mxPoint x="590" y="250" as="targetPoint" />
          </mxGeometry>
        </mxCell>
        <mxCell id="9RJ5_KFD5nvwRMHBTUOD-13" value="" style="endArrow=none;html=1;rounded=0;fontSize=12;startSize=8;endSize=8;curved=1;exitX=1;exitY=0.5;exitDx=0;exitDy=0;" edge="1" parent="1" source="9RJ5_KFD5nvwRMHBTUOD-7" target="9RJ5_KFD5nvwRMHBTUOD-3">
          <mxGeometry width="50" height="50" relative="1" as="geometry">
            <mxPoint x="540" y="300" as="sourcePoint" />
            <mxPoint x="590" y="250" as="targetPoint" />
          </mxGeometry>
        </mxCell>
        <mxCell id="9RJ5_KFD5nvwRMHBTUOD-15" value="" style="endArrow=none;html=1;rounded=0;fontSize=12;startSize=8;endSize=8;curved=1;exitX=1;exitY=0.5;exitDx=0;exitDy=0;" edge="1" parent="1" source="9RJ5_KFD5nvwRMHBTUOD-11" target="9RJ5_KFD5nvwRMHBTUOD-3">
          <mxGeometry width="50" height="50" relative="1" as="geometry">
            <mxPoint x="540" y="400" as="sourcePoint" />
            <mxPoint x="590" y="350" as="targetPoint" />
          </mxGeometry>
        </mxCell>
        <mxCell id="9RJ5_KFD5nvwRMHBTUOD-16" value="" style="endArrow=none;html=1;rounded=0;fontSize=12;startSize=8;endSize=8;curved=1;exitX=0.967;exitY=0.625;exitDx=0;exitDy=0;exitPerimeter=0;entryX=0;entryY=0.3333333333333333;entryDx=0;entryDy=0;entryPerimeter=0;" edge="1" parent="1" source="9RJ5_KFD5nvwRMHBTUOD-11" target="9RJ5_KFD5nvwRMHBTUOD-4">
          <mxGeometry width="50" height="50" relative="1" as="geometry">
            <mxPoint x="540" y="400" as="sourcePoint" />
            <mxPoint x="590" y="350" as="targetPoint" />
          </mxGeometry>
        </mxCell>
        <mxCell id="9RJ5_KFD5nvwRMHBTUOD-17" value="Entregador" style="shape=umlActor;verticalLabelPosition=bottom;verticalAlign=top;html=1;outlineConnect=0;" vertex="1" parent="1">
          <mxGeometry x="670" y="440" width="30" height="60" as="geometry" />
        </mxCell>
        <mxCell id="9RJ5_KFD5nvwRMHBTUOD-18" value="Prepara a pizza" style="ellipse;whiteSpace=wrap;html=1;" vertex="1" parent="1">
          <mxGeometry x="265" y="250" width="100" height="70" as="geometry" />
        </mxCell>
        <mxCell id="9RJ5_KFD5nvwRMHBTUOD-19" value="" style="endArrow=none;html=1;rounded=0;fontSize=12;startSize=8;endSize=8;curved=1;exitX=1;exitY=0.5;exitDx=0;exitDy=0;" edge="1" parent="1" source="9RJ5_KFD5nvwRMHBTUOD-18" target="9RJ5_KFD5nvwRMHBTUOD-4">
          <mxGeometry width="50" height="50" relative="1" as="geometry">
            <mxPoint x="540" y="400" as="sourcePoint" />
            <mxPoint x="590" y="350" as="targetPoint" />
          </mxGeometry>
        </mxCell>
        <mxCell id="9RJ5_KFD5nvwRMHBTUOD-20" value="Sistema de Pedidos Pizzaria" style="text;html=1;align=center;verticalAlign=middle;whiteSpace=wrap;rounded=0;" vertex="1" parent="1">
          <mxGeometry x="329" y="90" width="170" height="30" as="geometry" />
        </mxCell>
        <mxCell id="9RJ5_KFD5nvwRMHBTUOD-22" value="Avisa o atendente" style="ellipse;whiteSpace=wrap;html=1;" vertex="1" parent="1">
          <mxGeometry x="450" y="340" width="120" height="80" as="geometry" />
        </mxCell>
        <mxCell id="9RJ5_KFD5nvwRMHBTUOD-23" value="" style="endArrow=none;html=1;rounded=0;fontSize=12;startSize=8;endSize=8;curved=1;exitX=1;exitY=0.5;exitDx=0;exitDy=0;" edge="1" parent="1" source="9RJ5_KFD5nvwRMHBTUOD-22" target="9RJ5_KFD5nvwRMHBTUOD-4">
          <mxGeometry width="50" height="50" relative="1" as="geometry">
            <mxPoint x="540" y="300" as="sourcePoint" />
            <mxPoint x="590" y="250" as="targetPoint" />
          </mxGeometry>
        </mxCell>
        <mxCell id="9RJ5_KFD5nvwRMHBTUOD-24" value="" style="endArrow=none;html=1;rounded=0;fontSize=12;startSize=8;endSize=8;curved=1;exitX=0.917;exitY=0.2;exitDx=0;exitDy=0;exitPerimeter=0;" edge="1" parent="1" source="9RJ5_KFD5nvwRMHBTUOD-22" target="9RJ5_KFD5nvwRMHBTUOD-3">
          <mxGeometry width="50" height="50" relative="1" as="geometry">
            <mxPoint x="540" y="300" as="sourcePoint" />
            <mxPoint x="590" y="250" as="targetPoint" />
          </mxGeometry>
        </mxCell>
        <mxCell id="9RJ5_KFD5nvwRMHBTUOD-25" value="Aciona o entregador e passa o endereço" style="ellipse;whiteSpace=wrap;html=1;" vertex="1" parent="1">
          <mxGeometry x="320" y="340" width="120" height="80" as="geometry" />
        </mxCell>
        <mxCell id="9RJ5_KFD5nvwRMHBTUOD-26" value="" style="endArrow=none;html=1;rounded=0;fontSize=12;startSize=8;endSize=8;curved=1;" edge="1" parent="1" source="9RJ5_KFD5nvwRMHBTUOD-25" target="9RJ5_KFD5nvwRMHBTUOD-3">
          <mxGeometry width="50" height="50" relative="1" as="geometry">
            <mxPoint x="540" y="300" as="sourcePoint" />
            <mxPoint x="590" y="250" as="targetPoint" />
          </mxGeometry>
        </mxCell>
        <mxCell id="9RJ5_KFD5nvwRMHBTUOD-27" value="" style="endArrow=none;html=1;rounded=0;fontSize=12;startSize=8;endSize=8;curved=1;exitX=1;exitY=1;exitDx=0;exitDy=0;" edge="1" parent="1" source="9RJ5_KFD5nvwRMHBTUOD-25" target="9RJ5_KFD5nvwRMHBTUOD-17">
          <mxGeometry width="50" height="50" relative="1" as="geometry">
            <mxPoint x="540" y="300" as="sourcePoint" />
            <mxPoint x="590" y="250" as="targetPoint" />
          </mxGeometry>
        </mxCell>
        <mxCell id="9RJ5_KFD5nvwRMHBTUOD-28" value="Realiza entrega" style="ellipse;whiteSpace=wrap;html=1;" vertex="1" parent="1">
          <mxGeometry x="240" y="420" width="120" height="80" as="geometry" />
        </mxCell>
        <mxCell id="9RJ5_KFD5nvwRMHBTUOD-29" value="" style="endArrow=none;html=1;rounded=0;fontSize=12;startSize=8;endSize=8;curved=1;exitX=1;exitY=0.5;exitDx=0;exitDy=0;entryX=0.5;entryY=0.5;entryDx=0;entryDy=0;entryPerimeter=0;" edge="1" parent="1" source="9RJ5_KFD5nvwRMHBTUOD-28" target="9RJ5_KFD5nvwRMHBTUOD-17">
          <mxGeometry width="50" height="50" relative="1" as="geometry">
            <mxPoint x="540" y="300" as="sourcePoint" />
            <mxPoint x="590" y="250" as="targetPoint" />
          </mxGeometry>
        </mxCell>
        <mxCell id="9RJ5_KFD5nvwRMHBTUOD-30" value="" style="endArrow=none;html=1;rounded=0;fontSize=12;startSize=8;endSize=8;curved=1;exitX=0;exitY=0;exitDx=0;exitDy=0;" edge="1" parent="1" source="9RJ5_KFD5nvwRMHBTUOD-28" target="9RJ5_KFD5nvwRMHBTUOD-2">
          <mxGeometry width="50" height="50" relative="1" as="geometry">
            <mxPoint x="540" y="300" as="sourcePoint" />
            <mxPoint x="590" y="250" as="targetPoint" />
          </mxGeometry>
        </mxCell>
      </root>
    </mxGraphModel>
  </diagram>
</mxfile>
